<?xml version="1.0" encoding="UTF-8" standalone="no"?>
<!-- Created with Inkscape (http://www.inkscape.org/) -->

<svg
   xmlns:dc="http://purl.org/dc/elements/1.1/"
   xmlns:cc="http://creativecommons.org/ns#"
   xmlns:rdf="http://www.w3.org/1999/02/22-rdf-syntax-ns#"
   xmlns:svg="http://www.w3.org/2000/svg"
   xmlns="http://www.w3.org/2000/svg"
   xmlns:sodipodi="http://sodipodi.sourceforge.net/DTD/sodipodi-0.dtd"
   xmlns:inkscape="http://www.inkscape.org/namespaces/inkscape"
   width="210mm"
   height="297mm"
   viewBox="0 0 210 297"
   version="1.1"
   id="svg8"
   inkscape:version="0.92.2 2405546, 2018-03-11"
   sodipodi:docname="NereusLogo.svg">
  <defs
     id="defs2" />
  <sodipodi:namedview
     id="base"
     pagecolor="#ffffff"
     bordercolor="#666666"
     borderopacity="1.0"
     inkscape:pageopacity="0.0"
     inkscape:pageshadow="2"
     inkscape:zoom="1.23"
     inkscape:cx="416.77145"
     inkscape:cy="963.20324"
     inkscape:document-units="mm"
     inkscape:current-layer="layer1"
     showgrid="false"
     inkscape:window-width="1920"
     inkscape:window-height="1019"
     inkscape:window-x="1920"
     inkscape:window-y="25"
     inkscape:window-maximized="1" />
  <metadata
     id="metadata5">
    <rdf:RDF>
      <cc:Work
         rdf:about="">
        <dc:format>image/svg+xml</dc:format>
        <dc:type
           rdf:resource="http://purl.org/dc/dcmitype/StillImage" />
        <dc:title></dc:title>
      </cc:Work>
    </rdf:RDF>
  </metadata>
  <g
     inkscape:label="Layer 1"
     inkscape:groupmode="layer"
     id="layer1">
    <flowRoot
       xml:space="preserve"
       id="flowRoot10"
       style="font-style:normal;font-weight:normal;font-size:40px;line-height:1.25;font-family:sans-serif;letter-spacing:0px;word-spacing:0px;fill:#0d9ce0;fill-opacity:1;stroke:none"
       transform="matrix(0.74052547,0,0,0.74052547,76.335308,-22.352346)"
       inkscape:export-xdpi="96"
       inkscape:export-ydpi="96"><flowRegion
         id="flowRegion12"
         style="fill:#0d9ce0;fill-opacity:1"><rect
           id="rect14"
           width="146.47888"
           height="50.704224"
           x="15.492958"
           y="49.280247"
           style="fill:#0d9ce0;fill-opacity:1" /></flowRegion><flowPara
         id="flowPara16"
         style="font-style:normal;font-variant:normal;font-weight:normal;font-stretch:normal;font-family:Neou;-inkscape-font-specification:Neou;fill:#0d9ce0;fill-opacity:1">NEREUS</flowPara></flowRoot>    <g
       style="fill:#000000"
       id="g4711"
       transform="matrix(0.69699854,0,0,0.69699854,19.105551,-5.9130702)"
       inkscape:export-xdpi="96"
       inkscape:export-ydpi="96">
      <polygon
         id="polygon4526"
         points="84.296,36.458 84.296,40.773 88.032,38.616 88.032,34.301 " />
      <polygon
         id="polygon4528"
         points="84.296,30.989 84.296,35.305 88.032,33.147 88.032,28.832 " />
      <polygon
         id="polygon4530"
         points="84.296,41.927 84.296,46.264 88.032,44.106 88.032,39.77 " />
      <polygon
         id="polygon4532"
         points="92.769,53.463 89.032,55.62 89.032,57.777 90.905,58.856 92.769,57.778 " />
      <polygon
         id="polygon4534"
         points="79.55,28.256 79.55,32.57 83.296,30.412 83.296,26.098 " />
      <polygon
         id="polygon4536"
         points="84.296,51.732 87.533,49.863 84.296,47.994 " />
      <polygon
         id="polygon4538"
         points="34.542,65.19 34.542,69.517 40.651,65.981 40.651,61.666 " />
      <polygon
         id="polygon4540"
         points="92.769,37.035 89.032,39.192 89.032,44.395 89.032,48.998 92.769,46.841 " />
      <polygon
         id="polygon4542"
         points="89.032,33.724 89.032,38.039 92.769,35.882 92.769,31.566 " />
      <path
         id="path4544"
         d="m 85.964,56.248 c 0.033,-0.014 0.064,-0.027 0.101,-0.034 0.032,-0.007 0.063,-0.007 0.097,-0.007 0.03,0 0.06,10e-4 0.09,0.006 0.035,0.007 0.066,0.02 0.1,0.033 0.02,0.008 0.04,0.009 0.059,0.02 l 1.623,0.936 v -1.869 -4.604 l -3.983,2.3 c -0.001,10e-4 -0.002,0.002 -0.003,0.003 L 79.3,55.766 c -10e-4,0.001 -0.002,0 -0.003,0.001 l -4.733,2.732 -4.486,2.59 v 5.181 5.48 4.604 l 1.374,-0.792 v -10.66 c 0,-0.011 0.005,-0.02 0.006,-0.03 0.001,-0.021 0.005,-0.042 0.009,-0.063 0.004,-0.023 0.01,-0.045 0.018,-0.067 0.008,-0.021 0.016,-0.042 0.026,-0.062 0.004,-0.009 0.004,-0.019 0.009,-0.027 0.005,-0.008 0.014,-0.014 0.019,-0.021 0.013,-0.019 0.025,-0.035 0.04,-0.052 0.017,-0.02 0.033,-0.035 0.052,-0.052 0.017,-0.014 0.032,-0.026 0.05,-0.038 0.009,-0.006 0.014,-0.015 0.022,-0.02 l 14.208,-8.203 c 0.016,-0.01 0.035,-0.011 0.053,-0.019 z"
         inkscape:connector-curvature="0" />
      <path
         id="path4546"
         d="m 54.858,58.932 -3.985,2.302 c -0.007,0.004 -0.016,0.002 -0.022,0.006 -0.069,0.036 -0.145,0.062 -0.228,0.062 -0.082,0 -0.156,-0.024 -0.224,-0.059 -0.02,-0.01 -0.034,-0.022 -0.051,-0.035 -0.053,-0.035 -0.095,-0.077 -0.131,-0.129 -0.008,-0.011 -0.021,-0.016 -0.027,-0.027 -0.005,-0.009 -0.005,-0.019 -0.009,-0.027 -0.016,-0.03 -0.024,-0.063 -0.033,-0.098 -0.009,-0.032 -0.018,-0.062 -0.02,-0.096 -10e-4,-0.01 -0.006,-0.019 -0.006,-0.029 V 56.198 L 46.126,58.5 c -0.008,0.005 -0.017,0.003 -0.024,0.007 -0.069,0.035 -0.144,0.06 -0.226,0.06 -0.082,0 -0.156,-0.024 -0.224,-0.059 -0.02,-0.01 -0.035,-0.023 -0.053,-0.036 -0.051,-0.034 -0.092,-0.075 -0.127,-0.125 -0.009,-0.013 -0.022,-0.018 -0.03,-0.03 -0.006,-0.01 -0.005,-0.021 -0.01,-0.029 -0.015,-0.029 -0.021,-0.06 -0.03,-0.091 -0.01,-0.034 -0.019,-0.067 -0.021,-0.102 -10e-4,-0.01 -0.006,-0.019 -0.006,-0.028 v -5.469 c 0,-0.021 0.01,-0.039 0.012,-0.059 0.004,-0.036 0.01,-0.07 0.021,-0.104 0.01,-0.03 0.024,-0.056 0.039,-0.082 0.017,-0.029 0.033,-0.057 0.056,-0.082 0.021,-0.024 0.047,-0.044 0.073,-0.064 0.018,-0.014 0.029,-0.031 0.049,-0.043 l 3.996,-2.302 -7.971,-4.603 v 4.604 8.203 2.734 5.181 l 4.226,2.456 4.496,-2.601 c 0.009,-0.005 0.019,-0.005 0.027,-0.01 0.029,-0.015 0.06,-0.022 0.092,-0.031 0.034,-0.01 0.067,-0.019 0.103,-0.021 0.01,-0.001 0.019,-0.006 0.028,-0.006 0.021,0 0.037,0.009 0.057,0.012 0.036,0.004 0.07,0.009 0.104,0.021 0.03,0.011 0.058,0.025 0.085,0.042 0.027,0.016 0.053,0.03 0.076,0.051 0.028,0.024 0.05,0.052 0.072,0.081 0.012,0.017 0.028,0.026 0.038,0.044 0.005,0.009 0.005,0.019 0.009,0.027 0.016,0.03 0.024,0.062 0.033,0.097 0.009,0.032 0.018,0.063 0.02,0.096 10e-4,0.011 0.006,0.02 0.006,0.03 v 4.615 l 3.735,-2.157 v -9.795 z"
         inkscape:connector-curvature="0" />
      <polygon
         id="polygon4548"
         points="51.123,55.62 51.123,59.936 54.858,57.778 54.858,53.463 " />
      <polygon
         id="polygon4550"
         points="50.123,50.729 46.376,52.888 46.376,57.201 50.123,55.042 " />
      <polygon
         id="polygon4552"
         points="73.813,57.778 73.813,53.463 70.077,55.62 70.077,59.936 " />
      <polygon
         id="polygon4554"
         points="51.622,49.863 54.858,51.732 54.858,47.994 " />
      <polygon
         id="polygon4556"
         points="54.359,52.598 51.123,50.729 51.123,54.467 " />
      <polygon
         id="polygon4558"
         points="50.123,67.136 46.376,69.304 46.376,73.619 50.123,71.46 " />
      <path
         id="path4560"
         d="m 40.903,43.961 1.614,-0.941 -7.976,-4.605 v 4.604 8.213 2.446 l 6.109,3.524 v -6.475 l -1.636,0.938 c -0.008,0.004 -0.016,0.002 -0.023,0.006 -0.068,0.036 -0.143,0.061 -0.226,0.061 -0.082,0 -0.156,-0.024 -0.224,-0.059 -0.02,-0.01 -0.035,-0.023 -0.053,-0.036 -0.052,-0.034 -0.094,-0.077 -0.128,-0.128 -0.009,-0.011 -0.022,-0.016 -0.029,-0.028 -0.005,-0.009 -0.005,-0.019 -0.009,-0.027 -0.016,-0.03 -0.023,-0.062 -0.032,-0.096 -0.009,-0.034 -0.018,-0.064 -0.02,-0.097 -0.001,-0.011 -0.006,-0.02 -0.006,-0.029 v -5.469 c 0,-0.021 0.01,-0.04 0.013,-0.061 0.004,-0.035 0.009,-0.068 0.021,-0.102 0.01,-0.03 0.025,-0.057 0.041,-0.084 0.016,-0.028 0.031,-0.055 0.053,-0.079 0.023,-0.026 0.05,-0.047 0.077,-0.067 0.017,-0.013 0.028,-0.03 0.047,-0.041 z"
         inkscape:connector-curvature="0" />
      <polygon
         id="polygon4562"
         points="40.651,45.258 39.267,46.052 39.267,50.367 40.651,49.573 " />
      <polygon
         id="polygon4564"
         points="54.858,74.196 54.858,69.881 51.123,72.038 51.123,76.354 " />
      <polygon
         id="polygon4566"
         points="88.282,58.5 86.158,57.276 72.949,64.902 81.423,69.806 94.643,62.168 90.659,59.869 90.659,59.868 90.658,59.868 90.655,59.867 " />
      <polygon
         id="polygon4568"
         points="51.123,44.683 51.123,48.998 54.858,46.841 54.858,42.509 " />
      <path
         id="path4570"
         d="m 59.595,34.306 -1.609,0.94 c -10e-4,0 -0.002,10e-4 -0.003,0.002 l -4.747,2.734 c -10e-4,10e-4 -0.002,0 -0.003,10e-4 l -9.466,5.466 c -0.001,0 -0.001,0 -0.001,0 l -0.005,0.003 c -0.001,0 -0.001,0.001 -0.001,0.001 l -1.612,0.939 7.976,4.605 v -4.604 c 0,-0.021 0.009,-0.038 0.012,-0.059 0.004,-0.035 0.009,-0.068 0.021,-0.103 0.011,-0.03 0.025,-0.056 0.04,-0.083 0.017,-0.028 0.032,-0.056 0.055,-0.08 0.021,-0.025 0.047,-0.045 0.073,-0.065 0.018,-0.014 0.028,-0.031 0.048,-0.043 l 4.735,-2.756 c 0.01,-0.006 0.021,-0.006 0.031,-0.011 0.028,-0.014 0.059,-0.021 0.089,-0.03 0.034,-0.009 0.067,-0.019 0.102,-0.021 0.011,0 0.02,-0.006 0.03,-0.006 0.021,0 0.039,0.01 0.06,0.012 0.034,0.005 0.066,0.009 0.1,0.021 0.031,0.011 0.059,0.025 0.087,0.042 0.027,0.016 0.053,0.03 0.076,0.051 0.026,0.023 0.047,0.049 0.068,0.076 0.013,0.017 0.031,0.028 0.042,0.047 0.006,0.01 0.006,0.021 0.011,0.031 0.014,0.028 0.021,0.059 0.03,0.09 0.01,0.034 0.019,0.066 0.021,0.102 0.001,0.011 0.006,0.019 0.006,0.029 v 4.625 l 3.736,-2.157 v -9.799 z"
         inkscape:connector-curvature="0" />
      <polygon
         id="polygon4572"
         points="69.077,55.044 69.077,50.729 65.342,52.886 65.342,57.201 " />
      <polygon
         id="polygon4574"
         points="69.077,56.197 65.841,58.066 69.077,59.936 " />
      <path
         id="path4576"
         d="M 78.55,55.044 V 45.26 l -8.473,4.892 v 4.315 l 3.986,-2.302 c 0.009,-0.005 0.019,-0.005 0.027,-0.009 0.03,-0.016 0.062,-0.024 0.096,-0.033 0.034,-0.009 0.065,-0.018 0.099,-0.02 0.01,-0.001 0.019,-0.006 0.028,-0.006 0.021,0 0.038,0.009 0.058,0.012 0.036,0.004 0.071,0.009 0.105,0.021 0.029,0.01 0.055,0.024 0.081,0.039 0.028,0.017 0.056,0.033 0.08,0.055 0.027,0.023 0.048,0.05 0.068,0.078 0.013,0.016 0.029,0.027 0.04,0.045 0.005,0.009 0.005,0.019 0.009,0.027 0.016,0.03 0.024,0.063 0.033,0.098 0.009,0.032 0.018,0.062 0.02,0.096 0.001,0.01 0.006,0.019 0.006,0.029 v 4.604 z"
         inkscape:connector-curvature="0" />
      <polygon
         id="polygon4578"
         points="79.55,44.683 79.55,54.467 83.296,52.309 83.296,47.129 83.296,42.508 " />
      <path
         id="path4580"
         d="m 78.799,43.962 4.497,-2.611 V 37.036 L 79.3,39.338 h -10e-4 l -14.206,8.224 c 0,0 0,0.001 -0.001,0.001 l -4.747,2.734 c -10e-4,0.001 -0.002,0 -0.003,0.001 l -4.483,2.588 v 5.181 10.949 4.604 l 3.736,-2.157 v -16.13 c 0,-0.01 0.005,-0.019 0.006,-0.028 10e-4,-0.022 0.004,-0.044 0.009,-0.066 0.004,-0.023 0.011,-0.045 0.019,-0.067 0.007,-0.021 0.014,-0.039 0.023,-0.059 0.005,-0.009 0.004,-0.02 0.01,-0.029 0.006,-0.009 0.015,-0.015 0.021,-0.023 0.012,-0.019 0.025,-0.035 0.041,-0.053 0.015,-0.017 0.029,-0.031 0.047,-0.047 0.017,-0.015 0.033,-0.028 0.052,-0.04 0.009,-0.006 0.014,-0.015 0.023,-0.021 l 4.747,-2.734 c 10e-4,-10e-4 0.003,-10e-4 0.004,-10e-4 l 4.731,-2.732 9.47,-5.467 c 0,-0.003 0,-0.004 0.001,-0.004 z"
         inkscape:connector-curvature="0" />
      <polygon
         id="polygon4582"
         points="80.923,80.455 80.923,70.671 72.451,65.769 72.451,75.563 " />
      <polygon
         id="polygon4584"
         points="69.077,76.931 69.077,72.615 65.342,74.772 65.342,79.088 " />
      <polygon
         id="polygon4586"
         points="69.077,65.981 69.077,61.666 65.342,63.823 65.342,68.147 " />
      <polygon
         id="polygon4588"
         points="59.595,49.575 59.595,45.26 55.858,47.417 55.858,51.732 " />
      <path
         id="path4590"
         d="m 65.068,69.455 c -0.068,0.035 -0.144,0.061 -0.227,0.061 -0.081,0 -0.155,-0.024 -0.224,-0.059 -0.019,-0.01 -0.034,-0.023 -0.052,-0.035 -0.051,-0.034 -0.093,-0.076 -0.128,-0.126 -0.008,-0.012 -0.021,-0.017 -0.029,-0.029 -0.006,-0.009 -0.005,-0.02 -0.01,-0.029 -0.015,-0.029 -0.023,-0.062 -0.032,-0.094 -0.009,-0.033 -0.018,-0.064 -0.02,-0.098 -0.001,-0.011 -0.006,-0.02 -0.006,-0.03 v -5.48 c 0,-0.021 0.01,-0.04 0.013,-0.061 0.004,-0.035 0.009,-0.067 0.02,-0.101 0.011,-0.031 0.025,-0.058 0.042,-0.085 0.016,-0.027 0.031,-0.054 0.052,-0.077 0.023,-0.027 0.051,-0.049 0.08,-0.07 0.016,-0.012 0.026,-0.028 0.044,-0.039 l 3.986,-2.302 -3.981,-2.299 c -0.001,-0.001 -0.001,-0.001 -0.002,-0.001 -10e-4,-10e-4 -0.002,0 -0.003,-10e-4 L 60.594,56.197 V 71.46 l 4.248,2.447 4.234,-2.445 v -4.324 l -3.984,2.311 c -0.007,0.004 -0.016,0.002 -0.024,0.006 z"
         inkscape:connector-curvature="0" />
      <polygon
         id="polygon4592"
         points="64.342,57.201 64.342,53.463 61.098,55.332 " />
      <path
         id="path4594"
         d="m 78.55,34.301 -3.986,2.302 c -0.007,0.004 -0.016,0.002 -0.022,0.006 -0.069,0.036 -0.145,0.062 -0.228,0.062 -0.082,0 -0.156,-0.024 -0.225,-0.059 C 74.07,36.602 74.056,36.59 74.039,36.577 73.987,36.542 73.944,36.5 73.908,36.448 73.901,36.437 73.887,36.432 73.881,36.421 73.876,36.412 73.876,36.402 73.872,36.394 73.856,36.364 73.848,36.331 73.839,36.296 73.83,36.264 73.821,36.234 73.819,36.2 73.818,36.19 73.813,36.181 73.813,36.171 v -5.469 -4.599 l -1.61,0.94 h -0.001 c -0.001,0.001 -0.002,0.002 -0.003,0.003 l -2.122,1.212 v 10.646 c 0,0.021 -0.01,0.04 -0.012,0.061 -0.005,0.035 -0.01,0.067 -0.021,0.101 -0.011,0.031 -0.025,0.058 -0.042,0.085 -0.016,0.027 -0.031,0.054 -0.052,0.077 -0.023,0.027 -0.051,0.049 -0.08,0.07 -0.016,0.012 -0.026,0.028 -0.044,0.039 l -4.485,2.59 v 4.335 l 13.208,-7.646 v -4.315 z"
         inkscape:connector-curvature="0" />
      <polygon
         id="polygon4596"
         points="57.232,30.211 53.485,32.37 53.485,36.684 57.232,34.524 " />
      <polygon
         id="polygon4598"
         points="27.184,31.134 27.183,31.135 23.187,33.437 31.659,38.328 33.795,37.114 33.796,37.114 40.151,33.438 36.154,31.135 31.657,28.544 " />
      <polygon
         id="polygon4600"
         points="60.595,33.726 60.595,43.526 64.342,41.351 64.342,31.566 " />
      <polygon
         id="polygon4602"
         points="95.142,72.829 95.142,63.034 81.923,70.671 81.923,80.455 " />
      <polygon
         id="polygon4604"
         points="48.261,29.923 43.764,32.514 43.762,32.514 41.4,33.869 41.399,33.869 41.396,33.871 35.04,37.549 43.514,42.44 52.485,37.261 52.485,32.368 " />
      <polygon
         id="polygon4606"
         points="47.761,29.056 47.761,24.742 44.014,26.901 44.014,31.215 " />
      <polygon
         id="polygon4608"
         points="60.595,44.683 60.595,48.998 64.342,46.839 64.342,42.507 " />
      <polygon
         id="polygon4610"
         points="82.793,36.17 79.55,34.301 79.55,38.039 " />
      <polygon
         id="polygon4612"
         points="67.455,29.778 67.454,29.778 67.453,29.779 65.342,30.991 65.342,40.773 69.077,38.616 69.077,28.836 " />
      <polygon
         id="polygon4614"
         points="76.187,31.211 76.187,30.208 75.315,30.705 " />
      <polygon
         id="polygon4616"
         points="78.048,33.438 76.438,32.514 76.437,32.513 76.436,32.513 74.813,31.57 74.813,35.305 " />
      <polygon
         id="polygon4618"
         points="69.326,27.534 69.327,27.534 69.329,27.532 71.451,26.32 71.451,22.008 67.704,24.167 67.704,28.477 " />
      <polygon
         id="polygon4620"
         points="40.651,23.363 32.66,27.967 36.404,30.124 40.651,27.677 " />
      <polygon
         id="polygon4622"
         points="17.96,46.262 21.686,44.106 21.686,34.303 17.96,36.458 17.96,41.639 " />
      <polygon
         id="polygon4624"
         points="27.433,25.521 27.433,29.834 31.157,27.679 31.157,23.365 " />
      <polygon
         id="polygon4626"
         points="22.187,28.545 20.075,29.777 20.073,29.777 20.071,29.779 20.07,29.78 20.069,29.781 17.96,30.99 17.96,35.303 21.935,33.003 21.937,33.002 25.931,30.701 " />
      <polygon
         id="polygon4628"
         points="31.904,39.339 31.903,39.34 29.795,40.57 29.795,44.896 33.542,42.729 33.542,38.408 " />
      <polygon
         id="polygon4630"
         points="13.214,36.17 13.214,38.039 16.96,35.881 16.96,31.568 15.327,32.513 15.326,32.513 15.325,32.514 13.214,33.726 " />
      <path
         id="path4632"
         d="m 33.542,43.884 -3.997,2.311 c -0.007,0.004 -0.015,0.002 -0.022,0.006 -0.068,0.036 -0.143,0.061 -0.226,0.062 -0.001,0 -0.001,0 -0.001,0 -10e-4,0 -10e-4,0 -10e-4,0 -0.082,0 -0.156,-0.024 -0.224,-0.059 -0.02,-0.01 -0.034,-0.023 -0.051,-0.035 -0.052,-0.034 -0.095,-0.076 -0.13,-0.128 -0.008,-0.011 -0.021,-0.016 -0.028,-0.028 -0.006,-0.009 -0.006,-0.02 -0.01,-0.028 -0.016,-0.029 -0.023,-0.062 -0.031,-0.094 -0.01,-0.033 -0.019,-0.065 -0.021,-0.099 -0.001,-0.011 -0.006,-0.02 -0.006,-0.029 v -5.479 c 0,-0.021 0.01,-0.04 0.013,-0.061 0.004,-0.034 0.008,-0.066 0.02,-0.1 0.011,-0.03 0.025,-0.058 0.041,-0.085 0.016,-0.027 0.031,-0.054 0.053,-0.078 0.023,-0.026 0.049,-0.048 0.078,-0.069 0.016,-0.012 0.026,-0.028 0.044,-0.039 l 1.619,-0.945 -7.977,-4.605 v 9.805 l 10.856,6.259 v -6.482 z"
         inkscape:connector-curvature="0" />
      <polygon
         id="polygon4634"
         points="17.21,30.269 17.211,30.268 17.212,30.268 18.821,29.344 10.351,24.454 6.604,26.612 15.075,31.503 " />
      <polygon
         id="polygon4636"
         points="23.188,27.967 26.433,29.836 26.433,26.098 " />
      <polygon
         id="polygon4638"
         points="22.686,22.787 22.686,27.102 26.433,24.943 26.433,20.629 " />
      <polygon
         id="polygon4640"
         points="13.716,38.904 16.96,40.773 16.96,37.035 " />
      <path
         id="path4642"
         d="m 12.214,33.436 c 0,-0.021 0.01,-0.04 0.012,-0.062 0.005,-0.034 0.01,-0.067 0.021,-0.1 0.01,-0.031 0.025,-0.059 0.042,-0.087 0.016,-0.026 0.03,-0.052 0.052,-0.076 0.023,-0.026 0.05,-0.048 0.078,-0.069 0.017,-0.012 0.027,-0.029 0.046,-0.04 l 1.609,-0.924 -7.97,-4.602 v 4.314 l 6.109,3.514 v -1.868 z"
         inkscape:connector-curvature="0" />
    </g>
    <text
       xml:space="preserve"
       style="font-style:normal;font-weight:normal;font-size:10.58333302px;line-height:1.25;font-family:sans-serif;letter-spacing:0px;word-spacing:0px;fill:#000000;fill-opacity:1;stroke:none;stroke-width:0.26458332"
       x="87.118896"
       y="39.515244"
       id="text4715"
       inkscape:export-xdpi="96"
       inkscape:export-ydpi="96"><tspan
         sodipodi:role="line"
         id="tspan4713"
         x="87.118896"
         y="39.515244"
         style="fill:#04d4d4;fill-opacity:0.94117647;stroke-width:0.26458332">____________________</tspan></text>
    <text
       xml:space="preserve"
       style="font-style:normal;font-weight:normal;font-size:10.58333302px;line-height:1.25;font-family:sans-serif;letter-spacing:0px;word-spacing:0px;fill:#000000;fill-opacity:1;stroke:none;stroke-width:0.26458332"
       x="87.432961"
       y="15.546651"
       id="text4715-6"
       inkscape:export-xdpi="96"
       inkscape:export-ydpi="96"><tspan
         sodipodi:role="line"
         id="tspan4713-0"
         x="87.432961"
         y="15.546651"
         style="fill:#04d4d4;fill-opacity:0.94117647;stroke-width:0.26458332">____________________</tspan></text>
  </g>
</svg>
