<?xml version="1.0" encoding="UTF-8" standalone="no"?>
<!-- Created with Inkscape (http://www.inkscape.org/) -->

<svg
   xmlns:dc="http://purl.org/dc/elements/1.1/"
   xmlns:cc="http://creativecommons.org/ns#"
   xmlns:rdf="http://www.w3.org/1999/02/22-rdf-syntax-ns#"
   xmlns:svg="http://www.w3.org/2000/svg"
   xmlns="http://www.w3.org/2000/svg"
   xmlns:sodipodi="http://sodipodi.sourceforge.net/DTD/sodipodi-0.dtd"
   xmlns:inkscape="http://www.inkscape.org/namespaces/inkscape"
   width="210mm"
   height="297mm"
   viewBox="0 0 210 297"
   version="1.1"
   id="svg8"
   sodipodi:docname="NereusLogo3.svg"
   inkscape:version="0.92.2 2405546, 2018-03-11">
  <defs
     id="defs2" />
  <sodipodi:namedview
     id="base"
     pagecolor="#ffffff"
     bordercolor="#666666"
     borderopacity="1.0"
     inkscape:pageopacity="0.0"
     inkscape:pageshadow="2"
     inkscape:zoom="1.23"
     inkscape:cx="416.77145"
     inkscape:cy="864.42275"
     inkscape:document-units="mm"
     inkscape:current-layer="layer1"
     showgrid="false"
     inkscape:window-width="1920"
     inkscape:window-height="1019"
     inkscape:window-x="1920"
     inkscape:window-y="25"
     inkscape:window-maximized="1" />
  <metadata
     id="metadata5">
    <rdf:RDF>
      <cc:Work
         rdf:about="">
        <dc:format>image/svg+xml</dc:format>
        <dc:type
           rdf:resource="http://purl.org/dc/dcmitype/StillImage" />
        <dc:title></dc:title>
      </cc:Work>
    </rdf:RDF>
  </metadata>
  <g
     inkscape:label="Layer 1"
     inkscape:groupmode="layer"
     id="layer1">
    <flowRoot
       xml:space="preserve"
       id="flowRoot10"
       style="font-style:normal;font-weight:normal;font-size:40px;line-height:1.25;font-family:sans-serif;letter-spacing:0px;word-spacing:0px;fill:#0d9ce0;fill-opacity:1;stroke:none"
       transform="matrix(0.74052547,0,0,0.74052547,76.335308,-22.352346)"
       inkscape:export-xdpi="96"
       inkscape:export-ydpi="96"><flowRegion
         id="flowRegion12"
         style="fill:#0d9ce0;fill-opacity:1"><rect
           id="rect14"
           width="146.47888"
           height="50.704224"
           x="15.492958"
           y="49.280247"
           style="fill:#0d9ce0;fill-opacity:1" /></flowRegion><flowPara
         id="flowPara16"
         style="font-style:normal;font-variant:normal;font-weight:normal;font-stretch:normal;font-family:Neou;-inkscape-font-specification:Neou;fill:#0d9ce0;fill-opacity:1">NEREUS</flowPara></flowRoot>    <text
       xml:space="preserve"
       style="font-style:normal;font-weight:normal;font-size:10.58333302px;line-height:1.25;font-family:sans-serif;letter-spacing:0px;word-spacing:0px;fill:#000000;fill-opacity:1;stroke:none;stroke-width:0.26458332"
       x="87.648064"
       y="39.515244"
       id="text4715"
       inkscape:export-xdpi="96"
       inkscape:export-ydpi="96"><tspan
         sodipodi:role="line"
         id="tspan4713"
         x="87.648064"
         y="39.515244"
         style="fill:#04d4d4;fill-opacity:0.94117647;stroke-width:0.26458332">____________________</tspan></text>
    <text
       xml:space="preserve"
       style="font-style:normal;font-weight:normal;font-size:10.58333302px;line-height:1.25;font-family:sans-serif;letter-spacing:0px;word-spacing:0px;fill:#000000;fill-opacity:1;stroke:none;stroke-width:0.26458332"
       x="87.432961"
       y="15.546651"
       id="text4715-6"
       inkscape:export-xdpi="96"
       inkscape:export-ydpi="96"><tspan
         sodipodi:role="line"
         id="tspan4713-0"
         x="87.432961"
         y="15.546651"
         style="fill:#04d4d4;fill-opacity:0.94117647;stroke-width:0.26458332">____________________</tspan></text>
    <g
       style="fill:#648aa6;fill-opacity:1"
       id="g4905"
       transform="matrix(0.58987037,0,0,0.58987037,35.665944,1.5806033)">
      <polygon
         id="polygon4789"
         points="32.378,83.682 32.378,61.967 28.423,59.688 28.423,81.395 "
         style="fill:#648aa6;fill-opacity:1" />
      <polygon
         id="polygon4791"
         points="31.142,34.676 27.198,36.952 27.198,58.665 27.672,58.391 31.142,56.38 31.142,53.814 31.142,40.951 "
         style="fill:#648aa6;fill-opacity:1" />
      <path
         id="path4793"
         d="m 31.914,33.396 c 0.019,0.013 0.035,0.025 0.052,0.04 0.019,0.016 0.034,0.033 0.051,0.051 0.014,0.018 0.027,0.033 0.039,0.051 0.005,0.009 0.014,0.014 0.019,0.021 0.005,0.01 0.005,0.02 0.009,0.027 0.011,0.021 0.019,0.041 0.026,0.063 0.007,0.022 0.014,0.044 0.018,0.067 0.005,0.021 0.008,0.041 0.009,0.062 10e-4,0.01 0.006,0.02 0.006,0.029 v 6.855 l 0.984,0.575 c 0,10e-4 10e-4,10e-4 10e-4,10e-4 l 7.188,4.133 2.223,-1.279 c 0.017,-0.01 0.036,-0.01 0.054,-0.018 0.033,-0.015 0.066,-0.027 0.103,-0.034 0.03,-0.006 0.059,-0.007 0.089,-0.007 0.033,0 0.065,10e-4 0.099,0.008 0.033,0.006 0.062,0.018 0.094,0.031 0.021,0.008 0.042,0.01 0.062,0.021 l 4.954,2.854 c 0.009,0.006 0.014,0.014 0.022,0.02 0.019,0.013 0.035,0.025 0.052,0.041 0.018,0.015 0.033,0.03 0.049,0.048 0.015,0.017 0.028,0.034 0.04,0.052 0.006,0.01 0.016,0.014 0.021,0.023 0.005,0.009 0.005,0.02 0.01,0.029 0.01,0.019 0.017,0.037 0.023,0.058 0.009,0.022 0.015,0.045 0.019,0.068 0.005,0.022 0.008,0.044 0.009,0.065 0.001,0.011 0.006,0.019 0.006,0.029 v 2.565 l 1.473,0.854 V 29.088 L 30.905,18.235 v 10.563 2.855 1.146 l 0.988,0.576 c 0.008,0.008 0.013,0.016 0.021,0.021 z"
         inkscape:connector-curvature="0"
         style="fill:#648aa6;fill-opacity:1" />
      <polygon
         id="polygon4795"
         points="47.241,67.387 47.241,50.236 47.241,48.248 43.287,50.525 43.287,72.241 45.02,71.241 45.021,71.241 45.021,71.24 47.241,69.963 "
         style="fill:#648aa6;fill-opacity:1" />
      <polygon
         id="polygon4797"
         points="32.142,52.943 32.378,52.805 32.378,41.96 32.142,41.822 "
         style="fill:#648aa6;fill-opacity:1" />
      <polygon
         id="polygon4799"
         points="42.787,45.105 40.567,46.382 40.566,46.383 38.842,47.382 42.787,49.66 46.739,47.383 "
         style="fill:#648aa6;fill-opacity:1" />
      <polygon
         id="polygon4801"
         points="38.343,58.822 38.343,69.964 42.287,72.24 42.287,50.525 38.343,48.248 "
         style="fill:#648aa6;fill-opacity:1" />
      <polygon
         id="polygon4803"
         points="33.378,83.682 37.343,81.394 37.343,70.252 37.343,59.688 33.378,61.967 "
         style="fill:#648aa6;fill-opacity:1" />
      <polygon
         id="polygon4805"
         points="52.186,69.385 52.186,53.381 49.968,52.104 49.965,52.104 49.964,52.103 49.963,52.102 48.241,51.104 48.241,67.099 "
         style="fill:#648aa6;fill-opacity:1" />
      <polygon
         id="polygon4807"
         points="67.54,63.955 69.018,63.105 68.781,62.967 67.301,63.814 "
         style="fill:#648aa6;fill-opacity:1" />
      <polygon
         id="polygon4809"
         points="74.229,36.375 77.437,38.23 78.173,37.807 78.173,16.092 74.229,18.369 "
         style="fill:#648aa6;fill-opacity:1" />
      <polygon
         id="polygon4811"
         points="70.757,38.961 66.803,41.24 66.803,62.947 68.533,61.956 68.534,61.955 70.757,60.668 70.757,40.951 "
         style="fill:#648aa6;fill-opacity:1" />
      <polygon
         id="polygon4813"
         points="63.084,62.541 63.084,84.26 67.038,86.537 67.038,64.82 66.05,64.242 66.049,64.24 "
         style="fill:#648aa6;fill-opacity:1" />
      <polygon
         id="polygon4815"
         points="72.982,41.961 72.982,63.668 76.937,61.389 76.937,39.674 "
         style="fill:#648aa6;fill-opacity:1" />
      <path
         id="path4817"
         d="m 70.26,62.678 1.723,0.99 V 41.959 l -0.226,-0.133 v 19.129 c 0,0.021 -0.01,0.04 -0.012,0.061 -0.005,0.035 -0.01,0.067 -0.021,0.101 -0.011,0.03 -0.025,0.058 -0.042,0.086 -0.016,0.026 -0.031,0.053 -0.052,0.077 -0.023,0.026 -0.049,0.047 -0.077,0.068 -0.017,0.012 -0.027,0.029 -0.046,0.041 l -1.731,1.004 z"
         inkscape:connector-curvature="0"
         style="fill:#648aa6;fill-opacity:1" />
      <polygon
         id="polygon4819"
         points="61.858,38.963 61.858,45.238 61.858,60.67 62.833,61.244 65.803,62.947 65.803,41.239 "
         style="fill:#648aa6;fill-opacity:1" />
      <polygon
         id="polygon4821"
         points="52.186,92.823 52.186,75.963 52.186,71.119 48.241,73.396 48.241,95.1 "
         style="fill:#648aa6;fill-opacity:1" />
      <polygon
         id="polygon4823"
         points="43.287,73.396 43.287,92.822 47.241,95.102 47.241,73.395 45.269,72.252 "
         style="fill:#648aa6;fill-opacity:1" />
      <polygon
         id="polygon4825"
         points="66.303,40.373 70.252,38.098 69.765,37.82 69.763,37.819 69.761,37.817 69.76,37.817 66.303,35.809 62.357,38.096 "
         style="fill:#648aa6;fill-opacity:1" />
      <path
         id="path4827"
         d="m 48.241,70.252 c 0,0.021 -0.01,0.041 -0.013,0.062 -0.004,0.034 -0.009,0.067 -0.02,0.101 -0.011,0.031 -0.026,0.058 -0.043,0.086 -0.016,0.027 -0.03,0.053 -0.052,0.076 -0.022,0.027 -0.05,0.048 -0.078,0.069 -0.017,0.013 -0.027,0.03 -0.046,0.04 l -1.721,0.99 1.473,0.854 3.944,-2.277 -3.445,-1.997 v 1.996 z"
         inkscape:connector-curvature="0"
         style="fill:#648aa6;fill-opacity:1" />
      <polygon
         id="polygon4829"
         points="53.186,75.098 57.14,72.818 57.14,51.102 53.186,53.381 53.186,70.252 "
         style="fill:#648aa6;fill-opacity:1" />
      <path
         id="path4831"
         d="m 50.714,50.803 4.193,-2.421 5.951,-3.433 v -6.854 c 0,-0.01 0.005,-0.02 0.006,-0.029 0.001,-0.021 0.004,-0.042 0.009,-0.063 0.004,-0.023 0.01,-0.045 0.018,-0.067 0.008,-0.021 0.016,-0.042 0.026,-0.062 0.004,-0.008 0.004,-0.018 0.009,-0.027 0.005,-0.008 0.014,-0.013 0.019,-0.021 0.013,-0.018 0.025,-0.035 0.04,-0.052 0.016,-0.019 0.032,-0.034 0.051,-0.051 0.017,-0.014 0.031,-0.026 0.049,-0.038 0.009,-0.006 0.014,-0.015 0.023,-0.02 L 66.052,34.8 c 0.02,-0.012 0.041,-0.013 0.061,-0.021 0.031,-0.013 0.062,-0.025 0.094,-0.031 0.034,-0.008 0.066,-0.008 0.101,-0.007 0.03,0 0.059,0 0.089,0.006 0.035,0.007 0.066,0.02 0.1,0.034 0.02,0.008 0.04,0.009 0.059,0.02 l 2.957,1.718 V 18.236 L 50.714,29.088 Z"
         inkscape:connector-curvature="0"
         style="fill:#648aa6;fill-opacity:1" />
      <polygon
         id="polygon4833"
         points="52.686,52.514 56.636,50.238 55.158,49.392 51.215,51.668 "
         style="fill:#648aa6;fill-opacity:1" />
      <polygon
         id="polygon4835"
         points="71.982,84.26 71.982,64.822 70.011,63.688 68.038,64.822 68.038,86.537 "
         style="fill:#648aa6;fill-opacity:1" />
      <path
         id="path4837"
         d="m 73.481,37.098 -0.997,-0.568 -1.471,0.853 0.491,0.28 c 0.009,0.006 0.015,0.014 0.023,0.02 0.019,0.013 0.036,0.026 0.053,0.041 0.018,0.016 0.033,0.031 0.049,0.049 0.015,0.017 0.027,0.033 0.039,0.051 0.006,0.01 0.016,0.015 0.021,0.024 0.005,0.009 0.005,0.02 0.01,0.028 0.01,0.02 0.017,0.039 0.023,0.059 0.008,0.022 0.014,0.044 0.019,0.066 0.004,0.023 0.008,0.045 0.009,0.068 0.001,0.01 0.006,0.018 0.006,0.027 v 2.569 l 0.729,0.43 3.953,-2.288 -2.954,-1.708 c -10e-4,-10e-4 -0.002,0 -0.003,-10e-4 z"
         inkscape:connector-curvature="0"
         style="fill:#648aa6;fill-opacity:1" />
      <polygon
         id="polygon4839"
         points="73.729,12.949 69.785,15.226 73.729,17.503 77.673,15.226 "
         style="fill:#648aa6;fill-opacity:1" />
      <polygon
         id="polygon4841"
         points="26.694,31.529 25.703,32.086 25.702,32.086 23.23,33.52 23.229,33.52 22.747,33.805 26.698,36.086 30.646,33.807 30.157,33.521 30.156,33.521 28.925,32.812 28.921,32.811 "
         style="fill:#648aa6;fill-opacity:1" />
      <polygon
         id="polygon4843"
         points="22.254,34.676 22.254,56.38 26.198,58.666 26.198,36.952 "
         style="fill:#648aa6;fill-opacity:1" />
      <polygon
         id="polygon4845"
         points="38.568,12.083 38.568,11.805 34.624,14.082 34.624,14.36 "
         style="fill:#648aa6;fill-opacity:1" />
      <polygon
         id="polygon4847"
         points="23.479,31.097 23.479,32.219 24.451,31.655 "
         style="fill:#648aa6;fill-opacity:1" />
      <path
         id="path4849"
         d="m 70.284,16.957 c 0.018,0.012 0.034,0.025 0.051,0.04 0.018,0.016 0.033,0.031 0.049,0.049 0.016,0.018 0.029,0.035 0.041,0.054 0.006,0.008 0.014,0.012 0.019,0.021 0.005,0.009 0.005,0.019 0.009,0.027 0.011,0.02 0.019,0.04 0.026,0.061 0.008,0.023 0.014,0.045 0.019,0.069 0.004,0.021 0.007,0.042 0.008,0.062 0.001,0.01 0.006,0.019 0.006,0.03 v 19.148 l 1.721,-0.998 c 0.021,-0.012 0.043,-0.013 0.064,-0.021 0.029,-0.012 0.057,-0.023 0.087,-0.029 0.035,-0.008 0.068,-0.008 0.103,-0.008 0.03,0 0.059,0 0.088,0.006 0.034,0.006 0.065,0.019 0.098,0.031 0.02,0.008 0.041,0.01 0.06,0.02 l 0.499,0.285 V 18.369 l -3.944,-2.277 v 0.278 l 0.977,0.566 c 0.006,0.006 0.01,0.015 0.019,0.021 z"
         inkscape:connector-curvature="0"
         style="fill:#648aa6;fill-opacity:1" />
      <polygon
         id="polygon4851"
         points="69.013,17.369 68.534,17.091 68.534,17.091 50.214,6.518 39.318,12.805 34.374,15.659 31.406,17.37 50.214,28.222 "
         style="fill:#648aa6;fill-opacity:1" />
      <polygon
         id="polygon4853"
         points="38.068,10.939 34.124,8.661 30.172,10.939 34.124,13.216 "
         style="fill:#648aa6;fill-opacity:1" />
      <path
         id="path4855"
         d="m 26.454,30.519 c 0.018,-0.01 0.037,-0.011 0.056,-0.018 0.032,-0.014 0.063,-0.025 0.099,-0.032 0.03,-0.006 0.061,-0.006 0.092,-0.006 0.032,0 0.063,10e-4 0.096,0.008 0.033,0.006 0.063,0.018 0.095,0.031 0.019,0.008 0.039,0.009 0.057,0.02 l 2.221,1.277 0.737,-0.432 v -2.279 l -0.982,-0.564 h -0.001 l -0.998,-0.569 -3.946,2.275 1.475,0.849 z"
         inkscape:connector-curvature="0"
         style="fill:#648aa6;fill-opacity:1" />
      <path
         id="path4857"
         d="m 29.905,17.37 c 0,-0.011 0.005,-0.02 0.006,-0.03 10e-4,-0.021 0.004,-0.042 0.009,-0.063 0.004,-0.024 0.01,-0.046 0.019,-0.07 0.007,-0.021 0.015,-0.041 0.025,-0.06 0.004,-0.009 0.004,-0.019 0.009,-0.027 0.005,-0.008 0.014,-0.013 0.019,-0.021 0.013,-0.02 0.025,-0.037 0.041,-0.054 0.016,-0.018 0.03,-0.033 0.048,-0.048 0.018,-0.015 0.034,-0.028 0.054,-0.041 0.008,-0.006 0.013,-0.015 0.021,-0.02 l 3.469,-2 v -0.854 l -3.954,-2.278 v 15.995 l 0.235,0.136 V 17.37 Z"
         inkscape:connector-curvature="0"
         style="fill:#648aa6;fill-opacity:1" />
      <polygon
         id="polygon4859"
         points="31.894,57.101 31.893,57.102 28.923,58.822 32.878,61.1 36.841,58.822 32.878,56.535 "
         style="fill:#648aa6;fill-opacity:1" />
    </g>
  </g>
</svg>
